<svg width="80" height="80" viewBox="0 0 80 80" fill="none" xmlns="http://www.w3.org/2000/svg">
<path d="M19.5872 64.4933H42.5528C44.179 64.4933 45.3411 62.9179 44.8393 61.3454C43.7821 58.08 41.8932 56.5088 41.4226 55.9271C36.729 51.4099 25.7523 50.3423 20.1268 56.8412C19.1505 57.9571 17.9663 59.8214 17.3851 61.1474C16.6817 62.7179 17.852 64.4933 19.5872 64.4933ZM18.8476 61.7954C19.3722 60.6005 20.4656 58.8839 21.3341 57.8912C23.8126 55.0283 27.1337 53.8745 30.982 53.8745C36.682 53.8745 41.5538 56.3967 43.3163 61.8355C43.4835 62.3629 43.1033 62.8933 42.5528 62.8933H19.5872C19.0156 62.8933 18.6134 62.3224 18.8476 61.7954Z" fill="#222222"/>
<path d="M70.8035 58.5798C70.9722 50.772 71.2216 34.8263 71.4038 26.8743C71.454 23.8448 71.2447 22.9212 69.6747 19.9962C69.0505 18.9227 67.5219 16.0325 66.9434 14.9269C66.2862 13.7162 65.396 10.7239 63.9882 9.767C62.3945 8.67273 60.8736 10.7061 59.9653 11.9196C59.3099 12.7947 55.4415 17.0813 55.5413 16.9696C52.467 20.4209 52.0874 21.6931 52.1028 25.5566C52.1468 30.7129 52.1769 34.6964 52.2735 39.4012C46.6984 33.4641 24.3712 9.23746 23.3361 7.85242C22.8219 7.16895 21.9988 6.08946 21.0704 6.31218C19.7448 6.10398 16.7641 6.51199 16.032 7.50658C15.5548 8.14284 15.6178 9.06341 15.6882 9.7946C15.7865 10.8438 15.2826 48.1609 15.4117 48.6585C13.3249 50.2118 11.4994 52.1313 9.97259 54.4285C7.02572 58.8581 5.6528 63.3602 5.38093 69.4774C5.27315 71.6599 6.9947 73.4816 9.18301 73.4956L52.4726 73.741C54.6627 73.741 56.3926 71.9195 56.3132 69.7472C56.2685 68.3667 56.105 66.9913 55.8745 65.6342H73.7747C74.1455 65.6342 74.4674 65.3795 74.5528 65.0186C74.7747 64.0821 74.4351 63.1399 74.1122 62.517C73.7335 61.7791 72.516 60.3808 70.8035 58.5798ZM65.4885 53.1887C64.9215 45.9362 65.3546 34.3092 66.4861 26.0881C67.5953 26.2947 68.7016 26.5578 69.8033 26.8945C69.8009 27.0485 69.2397 56.8338 69.2371 56.9585C68.1007 55.7976 66.8306 54.5255 65.4885 53.1887ZM59.5986 47.1469C59.2119 39.946 59.5068 31.0939 60.0167 25.615C61.6487 25.5485 63.2789 25.6294 64.9045 25.8412C63.9623 32.7158 63.3486 43.4529 63.7753 51.481C62.0326 49.739 62.2654 49.9554 59.5986 47.1469ZM58.6674 15.8722C60.9276 16.2079 63.7738 16.461 66.1357 16.8138C68.782 21.8452 69.664 22.7712 69.7901 25.2316C64.7635 23.7781 59.5314 23.4783 53.7038 24.9219C53.7189 21.034 54.586 20.4473 58.6674 15.8722ZM53.7119 26.5628C55.2716 26.1559 56.8347 25.8857 58.3982 25.7339C57.941 30.8199 57.6672 38.5987 57.9173 45.3691C56.5803 43.96 55.2454 42.5481 53.9124 41.1343C53.7875 35.8202 53.7544 31.5771 53.7119 26.5628ZM52.4768 72.141L9.19239 71.8956C7.93314 71.8882 6.91571 70.8455 6.97884 69.5524C6.98373 69.4427 6.99532 69.3424 7.00091 69.2338C7.12036 69.2344 7.15592 69.2346 8.77884 69.2436C9.21843 69.2436 9.57676 68.8883 9.57884 68.4477C9.58093 68.0061 9.22468 67.6462 8.78301 67.6436L7.11192 67.6344C7.49173 63.4705 8.49577 60.1022 10.3271 56.8967L11.5049 57.7055C11.8677 57.9551 12.3663 57.8642 12.6174 57.4993C12.8674 57.1347 12.7747 56.6368 12.4111 56.3868L11.1691 55.5339C13.106 52.5622 15.5636 50.1503 18.7793 48.3989C19.4579 49.2613 19.564 49.9326 20.2434 49.9326C20.8734 49.9326 21.2684 49.221 20.9049 48.6842L20.2262 47.6827C23.3489 46.2844 26.1259 45.8157 29.0389 45.685L29.0934 47.3389C29.108 47.7712 29.4632 48.1123 29.8934 48.1123C29.9018 48.1123 29.9111 48.1123 29.9195 48.1118C30.3611 48.0972 30.708 47.7274 30.6934 47.2857L30.6395 45.6518C34.3325 45.6974 37.879 46.418 41.2492 47.9085L40.7632 49.1967C40.608 49.6102 40.8163 50.0712 41.2299 50.2269C41.6332 50.381 42.1027 50.1809 42.2611 49.7602L42.695 48.6104C46.2242 50.4755 48.9432 53.0066 51.1548 56.8974L49.8497 57.566C49.1039 57.9477 49.3783 59.0779 50.2153 59.0779C50.5406 59.0779 50.6202 58.9399 51.8867 58.32C53.5842 61.743 54.3888 65.1085 54.6379 68.7741L53.0882 68.6738C52.6549 68.643 52.2663 68.979 52.2382 69.4206C52.2091 69.8613 52.5434 70.242 52.9841 70.2706C53.0913 70.2772 54.7619 70.3792 54.6547 70.3727C54.4178 71.4544 53.489 72.141 52.4768 72.141ZM28.9205 44.0691V32.9206C32.2229 36.518 35.9357 40.6365 41.1101 46.0977C37.394 44.6034 33.0869 43.8772 28.9205 44.0691ZM55.5861 64.0342C55.1006 61.8461 54.2963 59.4974 53.2538 57.4316H56.3663C56.7424 57.4316 57.0674 57.1701 57.1476 56.8029C57.2518 56.3305 57.158 55.7857 56.8747 55.2196C56.1111 53.7393 55.5576 54.365 29.883 26.18C29.5911 25.8645 29.1595 25.0378 28.3872 25.0378C28.383 25.0378 28.3778 25.0378 28.3726 25.0378C28.0507 25.0425 27.7538 25.2024 27.5559 25.4769L27.5591 25.479C27.1238 26.0947 27.3205 26.845 27.3205 27.2128V44.1831C25.5515 44.355 26.2974 44.3577 21.6143 45.0649C21.5879 1.91243 21.6772 11.3876 21.5352 8.49343C21.53 8.38742 21.5292 8.27524 21.5359 8.15984C21.7295 8.378 21.94 8.65867 22.057 8.81335C22.399 9.27073 21.823 8.62899 28.266 15.7087L26.2288 17.3857C25.6488 17.8638 25.9918 18.8035 26.7372 18.8035C26.9163 18.8035 27.0966 18.7436 27.2455 18.6212C27.3552 18.5306 29.4746 16.7811 29.3434 16.8894C31.4452 19.1985 33.5532 21.5054 35.6611 23.8122L33.9518 25.2206C33.6101 25.5014 33.5622 26.0055 33.8424 26.3467C34.1243 26.688 34.6276 26.7356 34.9684 26.4555L36.7408 24.9953C38.3258 26.7277 38.0925 26.5013 43.0849 31.8931L41.6747 33.055C41.0962 33.5303 41.4348 34.4722 42.183 34.4722C42.6763 34.4722 42.8318 34.1083 44.1739 33.0684C46.4956 35.5719 48.6243 37.8544 50.6594 40.0229L49.4205 41.0436C48.8411 41.5205 49.1816 42.4613 49.9288 42.4613C50.4095 42.4613 50.5159 42.1472 51.7613 41.1882C53.8735 43.4337 55.9917 45.6706 58.1131 47.9051L57.1195 48.7232C56.5394 49.2013 56.8824 50.141 57.6278 50.141C58.1005 50.141 58.2517 49.8028 59.2152 49.0702C63.901 53.9133 58.4664 48.4199 65.8056 55.7644L64.8424 56.5581C64.2639 57.0334 64.6025 57.9753 65.3507 57.9753C65.8235 57.9753 65.9674 57.6425 66.9391 56.9034C69.5707 59.5584 72.2087 62.3118 72.6903 63.2498C72.832 63.5243 72.9309 63.7915 72.982 64.0342H55.5861Z" fill="#222222"/>
<path d="M46.2018 67.4219H15.3549C14.9132 67.4219 14.5549 67.7802 14.5549 68.2219C14.5549 68.6635 14.9132 69.0219 15.3549 69.0219H46.2018C46.6434 69.0219 47.0018 68.6635 47.0018 68.2219C47.0018 67.7802 46.6434 67.4219 46.2018 67.4219Z" fill="#222222"/>
</svg>
