<svg width="70" height="70" viewBox="0 0 70 70" fill="none" xmlns="http://www.w3.org/2000/svg">
<g clip-path="url(#clip0_11364_1225)">
<path d="M39.1605 47.9417C38.425 42.9911 43.476 36.5278 48.6814 38.866C38.1094 40.7842 39.953 56.2552 50.8345 53.6976C58.9496 50.9696 56.6534 39.9723 48.6814 39.0829C48.8315 39.0044 49.0092 39.0186 49.1742 38.9937C49.0011 38.9366 49.1517 38.9188 49.2043 38.8329C49.1574 38.7692 49.0504 38.7918 48.9874 38.7501C56.2527 37.599 60.386 46.7706 56.2678 52.3208C51.3958 59.4203 39.9686 56.5453 39.1605 47.9417ZM69.5499 14.4388C69.4557 16.3643 69.7923 18.5637 68.1251 19.9257C68.9385 19.065 69.0261 17.8536 68.8292 16.7446C68.6088 14.8786 68.592 12.6246 68.3413 10.8245C67.2302 11.9314 66.0982 13.0578 65.0236 14.1949C63.8676 15.1644 62.6187 17.2246 61.25 17.6933C59.1179 17.6214 56.9801 17.5735 54.848 17.5146C53.8958 17.493 54.0035 16.4056 53.9536 15.744C53.8238 13.9523 53.7759 12.0772 53.689 10.285C53.6773 10.0031 53.7878 9.74623 53.9746 9.56194C55.8829 7.53216 57.8028 5.57715 59.7609 3.6065C57.5134 3.69218 55.1022 3.08873 52.9174 3.59626C51.4637 4.61081 50.2601 6.20244 48.9432 7.39978C48.2166 8.08875 47.4142 8.81938 47.5417 9.8855C49.5996 20.706 47.1501 19.0121 40.4501 26.3344C33.7486 32.9077 26.7138 40.381 19.8704 46.8307C17.5052 48.5092 13.2801 46.8655 10.4697 46.8C8.94003 46.8351 8.14623 48.4592 7.0712 49.3292C2.92681 52.73 4.50366 53.9563 4.46317 58.6779C4.16631 58.8058 10.1653 53.1309 10.1558 53.0257C10.7699 52.2287 16.4187 53.0452 17.4595 52.9133C19.1279 52.9187 18.5254 55.6042 18.6817 56.605C18.5419 57.9888 19.2154 60.205 18.4554 61.3246C16.5057 63.2549 14.4733 65.2849 12.5246 67.2012C20.9112 67.4941 18.1879 68.5222 24.1812 62.6857C26.4576 60.0147 21.7705 53.7711 25.8469 50.6332C34.5814 41.928 43.3424 33.2466 52.2088 24.6866C55.1263 22.2152 59.1151 24.7827 62.4432 24.4073C64.6179 23.435 66.0115 21.1146 67.9715 19.7725C67.4603 20.4057 66.8024 21.037 66.2359 21.6579C66.8159 21.1423 66.4832 21.4831 66.2781 21.8458C66.4441 21.7611 67.5158 20.6741 66.9244 21.3786C62.7449 26.4375 62.4717 25.3267 56.4219 24.8202C54.7177 24.4985 53.3994 24.833 52.3178 26.2472C51.1628 27.4618 50.0115 28.68 48.8513 29.8962C49.3242 29.8377 51.2802 29.4306 51.4287 29.898C52.0093 30.8981 52.1899 32.0805 52.6533 33.1359C53.6484 33.3897 54.6152 33.7885 55.5286 34.26C56.5032 33.7526 57.4482 33.1891 58.3821 32.6346C59.2698 32.1642 59.8573 33.0915 60.4206 33.6143C63.68 36.682 63.898 35.9677 61.6976 40.0412C62.1208 40.8835 62.5125 41.7474 62.7823 42.6532L65.7027 43.5976C66.608 43.8501 66.5434 44.8933 66.5193 45.6278C66.3764 50.2183 67.591 49.8566 62.8188 51.3015C62.5482 52.1972 62.1863 53.0645 61.7453 53.8892C64.3935 58.6967 63.1923 57.2182 59.9354 61.0333C59.5428 61.528 58.8612 61.7451 58.3055 61.442C57.9581 61.2468 55.9066 60.2343 55.5946 60.0678C54.7645 60.4962 53.8948 60.846 52.9975 61.1038C51.5878 65.1893 52.4206 64.8655 47.9847 64.7363C47.0382 64.6649 45.5671 65.0419 45.333 63.769C45.1108 63.0169 44.6854 61.7125 44.45 60.9799C43.5158 60.6879 42.6092 60.3104 41.7509 59.8403C40.9778 60.2205 39.7242 60.8532 38.9519 61.2345C38.0507 61.7794 37.2301 60.4043 36.673 59.9325C33.4254 56.719 33.9248 57.7524 36.0045 53.875C35.507 52.9367 35.1353 51.9411 34.8794 50.914C33.8207 50.6092 32.7826 50.2693 31.7769 49.8381C31.0493 49.5379 31.4339 48.3963 31.345 47.7633C26.5789 52.8614 25.1929 51.7652 26.5906 59.0215C27.0331 61.001 26.8304 63.185 25.1294 64.5153C23.1422 66.1848 21.684 69.0239 18.9391 69.4392C3.33236 69.4578 8.78144 68.7791 16.6472 60.1133L16.4753 55.0518C14.8662 55.0007 13.0271 54.9403 11.4298 54.8892C9.17725 57.1782 6.89547 59.4522 4.65418 61.7545C4.03141 62.7368 2.46128 63.1329 2.26724 61.6406C2.22222 60.1392 2.16039 58.6495 2.08143 57.1506C1.95913 54.3638 1.3088 51.0964 3.93262 49.2162C6.02775 47.3833 8.00477 43.9136 11.2168 44.5474C13.9004 44.4883 17.5168 46.508 19.4988 43.9998C18.8288 42.685 18.2729 41.2686 17.7995 39.8804C16.455 39.5328 15.1429 39.0982 13.9283 38.4C9.4736 40.4844 10.5673 41.9769 6.80526 38.1134C3.2361 35.3494 5.01118 34.8968 6.56838 31.4365C5.94678 30.3133 5.48545 29.1131 5.09854 27.8909L1.26277 26.6499C0.765488 26.4889 0.448808 26.0286 0.447632 25.5329C0.447128 25.5329 0.446455 23.4769 0.445783 23.4754C0.403279 17.7778 -0.0716563 19.3661 5.06074 17.4769C5.4206 16.2586 5.90981 15.0784 6.51781 13.963C3.44021 7.98711 4.09222 10.3606 8.59933 5.25391C9.0158 4.72253 9.7256 4.37141 10.3514 4.72303C11.0494 5.09851 13.2504 6.18077 13.919 6.53609C15.0399 5.9417 16.223 5.46627 17.4442 5.12355C19.1823 0.788137 17.6429 0.280609 22.6468 0.567385C27.5603 0.570241 25.8981 0.250537 27.755 5.24719C29.013 5.62536 30.2402 6.12214 31.3826 6.77314C36.4974 4.47792 34.6922 3.6317 38.6841 7.60961C41.7118 10.5083 40.4306 9.39075 38.3432 13.9928C38.9969 15.2062 39.4198 16.4988 39.8369 17.808C41.2011 18.3703 42.647 18.7967 44.0243 19.3155C46.4583 17.1329 45.957 16.8634 45.6072 13.858C44.7393 7.66438 44.7852 8.04994 49.2217 3.74897C50.4599 2.4211 52.0505 0.815521 54.041 1.02115C56.5842 1.11826 59.8442 1.30759 62.4112 1.38974C63.4039 1.3968 63.9059 2.71291 63.1879 3.38122C60.7338 5.83637 58.2551 8.26666 55.7855 10.7042C55.832 12.3561 55.8728 14.0067 55.9053 15.6508C57.5868 15.7425 59.2703 15.8077 60.9461 15.9194C63.4861 13.5808 66.034 11.0477 68.5925 8.72429C69.9323 8.01852 69.4824 10.1919 69.5541 10.9122C69.5549 12.0922 69.56 13.2821 69.5499 14.4388ZM32.0347 47.0695C32.1007 47.7287 32.1348 48.4084 32.1835 49.0717C33.3499 49.3543 34.5095 49.6249 35.6762 49.9216C36.2202 50.2882 36.2037 51.1868 36.5782 51.7271C38.31 54.5176 37.5422 54.167 36.2782 56.9899C36.8611 57.5562 38.0603 58.7282 38.6317 59.2941C43.1334 56.759 41.1584 58.0955 45.5267 59.213C46.4971 59.4932 46.6673 61.7884 47.1273 62.6567C47.4791 62.656 49.9347 62.6523 50.218 62.6515L51.1356 59.8037C51.3773 59.0463 52.2681 59.1137 52.872 58.8365C56.3382 57.2356 55.1612 57.323 58.6469 59.0279C59.0146 58.6599 60.3134 57.3519 60.7012 56.9618C58.4847 52.8471 59.2293 54.5853 60.5372 50.564C60.6521 50.0079 60.8593 49.3742 61.458 49.216L64.1092 48.3268C64.1075 47.7823 64.1028 46.1488 64.0985 45.6309C63.437 45.4178 62.0878 44.9908 61.4377 44.7705C60.6773 44.5526 60.5918 43.7725 60.3974 43.1372C58.9125 39.1551 58.518 41.0085 60.5967 36.9713C59.9398 36.3138 59.2717 35.6555 58.627 34.9854C55.6235 36.2912 56.2747 36.9883 53.285 35.2182C50.5545 34.3487 51.1862 33.1765 50.5189 30.7567C49.783 30.6874 49.1287 30.5999 48.4432 30.3219C43.0734 35.9865 37.5363 41.526 32.0347 47.0695ZM43.4881 19.8534C42.0172 19.3582 40.2606 19.235 38.9299 18.5499C37.3461 13.6774 35.6299 15.5364 38.5655 10.0039C38.1581 9.59655 35.7629 7.26034 35.3466 6.84722C34.3581 7.19784 31.7245 9.17554 30.9336 8.71539C30.357 8.38863 29.7631 8.0869 29.1545 7.82398C28.2441 7.22052 26.5621 7.38315 26.0495 6.39598C25.6631 5.26887 25.1636 3.76426 24.7883 2.64202C24.6154 2.64756 20.8223 2.64991 20.5166 2.65092L19.3009 6.41798C18.8204 7.42884 17.3647 7.2217 16.4963 7.77391C15.4986 8.03902 14.5529 9.22493 13.4982 8.86659C12.3311 8.29656 11.1583 7.7351 10.007 7.13652C9.33248 7.81994 7.81191 9.33413 7.12748 10.0375C9.64798 15.1992 9.43765 12.5413 7.52598 17.6317C7.27129 18.3124 7.26927 19.3105 6.45145 19.5558C6.42944 19.5628 2.88145 20.746 2.85759 20.7539C2.8586 21.7051 2.86666 23.6578 2.87221 24.6152C3.55446 24.818 5.62808 25.5208 6.33922 25.7482C6.79702 25.864 7.1594 26.2228 7.26658 26.6586C8.69962 32.2258 10.442 29.6094 7.2061 35.3328C8.15682 36.2783 9.08972 37.2415 10.0196 38.2068C14.9536 35.9398 12.7407 35.9515 17.3689 38.1893C17.8914 38.4971 18.7874 38.4448 19.0227 39.07C19.3532 40.5413 19.7631 42.0153 19.9907 43.5016C27.7129 35.6639 35.7275 27.6493 43.4881 19.8534ZM33.9628 21.5422C33.5186 16.1974 28.4368 11.4975 23.0285 12.3106C23.1086 12.3523 23.2436 12.3311 23.304 12.3963C23.2279 12.4878 23.053 12.4944 23.2686 12.5567C23.0599 12.578 22.8343 12.5639 22.6414 12.6414C35.3417 14.0484 35.0852 32.1322 21.9444 31.9533C9.81195 30.5218 11.156 13.9367 22.6414 12.4245C19.7952 11.1188 16.2443 12.7077 14.145 14.8003C0.191095 32.7834 33.953 44.1815 33.9628 21.5422Z" fill="#222222"/>
</g>
<defs>
<clipPath id="clip0_11364_1225">
<rect width="70" height="70" fill="white"/>
</clipPath>
</defs>
</svg>
