<?xml version="1.0" encoding="UTF-8"?>
<!DOCTYPE svg PUBLIC "-//W3C//DTD SVG 1.1//EN" "http://www.w3.org/Graphics/SVG/1.1/DTD/svg11.dtd">
<!-- Creator: CorelDRAW -->
<svg xmlns="http://www.w3.org/2000/svg" xml:space="preserve" width="127mm" height="115.492mm" version="1.1" style="shape-rendering:geometricPrecision; text-rendering:geometricPrecision; image-rendering:optimizeQuality; fill-rule:evenodd; clip-rule:evenodd"
viewBox="0 0 2077.61 1889.35"
 xmlns:xlink="http://www.w3.org/1999/xlink"
 xmlns:xodm="http://www.corel.com/coreldraw/odm/2003">
 <defs>
  <style type="text/css">
   <![CDATA[
    .fil0 {fill:#FBBA00;fill-rule:nonzero}
    .fil1 {fill:#D4A005;fill-rule:nonzero}
    .fil4 {fill:#319D3F;fill-rule:nonzero}
    .fil3 {fill:#AE0900;fill-rule:nonzero}
    .fil2 {fill:#FDC300;fill-rule:nonzero}
   ]]>
  </style>
 </defs>
 <g id="Katman_x0020_1">
  <metadata id="CorelCorpID_0Corel-Layer"/>
  <g id="_2196593404240">
   <path class="fil0" d="M581.3 1761.98c0,38.21 21.22,70.05 52.63,100.18 18.53,17.77 43.54,27.19 69.22,27.19l671.35 0c25.67,0 50.67,-9.42 69.21,-27.19 31.42,-30.13 52.65,-51.05 52.65,-100.18l-915.06 0z"/>
   <path class="fil1" d="M1330.41 1821.21c-18.53,17.77 -43.54,27.19 -69.21,27.19l-640.66 0c4.23,4.62 8.63,9.22 13.36,13.75 18.53,17.77 43.54,27.19 69.21,27.19l671.35 0c25.67,0 50.68,-9.42 69.22,-27.19 31.41,-30.13 52.64,-51.05 52.64,-100.18l-119.93 0c-8.61,23.05 -25,39.11 -45.98,59.24z"/>
   <path class="fil2" d="M1330.41 1821.21c20.98,-20.13 37.37,-36.18 45.98,-59.24l-795.13 0c0,32.47 15.41,60.31 39.29,86.43l640.66 0c25.67,0 50.68,-9.42 69.21,-27.19z"/>
   <path class="fil3" d="M1496.35 1598.32l-915.09 0c-25.95,0 -46.99,21.04 -46.99,46.98 0,25.94 21.04,46.98 46.99,46.98l915.09 0c25.95,0 46.98,-21.04 46.98,-46.98 0,-25.94 -21.03,-46.98 -46.98,-46.98z"/>
   <path class="fil0" d="M1492.6 332.03c25.03,0 41.09,-27.03 28.75,-48.79 -95.83,-169.08 -277.31,-283.22 -485.54,-283.22 -208.23,0 -389.7,114.13 -485.53,283.22 -12.34,21.76 3.72,48.79 28.74,48.79l913.58 0z"/>
   <path class="fil1" d="M1304.8 241.07c0,15.06 -12.21,27.28 -27.29,27.28 -15.07,0 -27.3,-12.22 -27.3,-27.28 0,-15.07 12.22,-27.3 27.3,-27.3 15.07,0 27.29,12.23 27.29,27.3z"/>
   <path class="fil1" d="M1213.52 144.91c0,10.59 -8.59,19.18 -19.17,19.18 -10.59,0 -19.17,-8.59 -19.17,-19.18 0,-10.59 8.58,-19.18 19.17,-19.18 10.59,0 19.17,8.59 19.17,19.18z"/>
   <path class="fil1" d="M1293.46 137.11c0,5.94 -4.82,10.75 -10.76,10.75 -5.93,0 -10.75,-4.82 -10.75,-10.75 0,-5.94 4.82,-10.76 10.75,-10.76 5.94,0 10.76,4.82 10.76,10.76z"/>
   <path class="fil1" d="M1521.32 283.22c-74.5,-131.44 -200.77,-229.65 -351.12,-266.87 102.4,49.5 187.4,129.32 243.26,227.88 12.34,21.77 -3.72,48.8 -28.75,48.8l-838.07 0c-3.78,19.31 10.99,38.98 32.34,38.98l913.58 0c25.02,0 41.08,-27.02 28.74,-48.8z"/>
   <path class="fil2" d="M1413.46 244.24c-55.87,-98.56 -140.86,-178.4 -243.26,-227.89 -43.05,-10.66 -88.06,-16.35 -134.42,-16.35 -208.23,0 -389.7,114.15 -485.54,283.23 -1.81,3.19 -2.93,6.49 -3.58,9.81l838.06 0c25.02,0 41.09,-27.03 28.75,-48.8z"/>
   <path class="fil1" d="M1239.98 193.33c0,15.07 -12.21,27.29 -27.29,27.29 -15.07,0 -27.28,-12.22 -27.28,-27.29 0,-15.07 12.21,-27.3 27.28,-27.3 15.08,0 27.29,12.23 27.29,27.3z"/>
   <path class="fil1" d="M1148.71 98.13c0,10.58 -8.59,19.18 -19.18,19.18 -10.59,0 -19.17,-8.59 -19.17,-19.18 0,-10.59 8.58,-19.18 19.17,-19.18 10.59,0 19.18,8.59 19.18,19.18z"/>
   <path class="fil1" d="M1228.65 90.34c0,5.93 -4.82,10.75 -10.75,10.75 -5.94,0 -10.76,-4.82 -10.76,-10.75 0,-5.94 4.82,-10.76 10.76,-10.76 5.93,0 10.75,4.82 10.75,10.76z"/>
   <path class="fil4" d="M516.57 401.27c0.61,10.41 3.5,20.83 9.04,30.47 19.1,33.27 61.56,44.74 94.83,25.68 15.12,-8.68 32.39,-12.89 52.81,-12.89 19.09,0 23.39,2.47 41.3,12.75 26.46,15.32 66.3,38.38 135.41,39.53 3.86,0.21 7.99,0.19 11.96,0 68.88,-1.09 108.9,-24.13 135.4,-39.39 18.15,-10.43 22.44,-12.89 41.55,-12.89 19.1,0 23.41,2.47 41.32,12.77 26.47,15.3 66.33,38.36 135.42,39.5 3.85,0.21 8,0.19 11.92,0 68.91,-1.08 108.93,-24.13 135.61,-39.48 17.89,-10.35 22.14,-12.8 41.37,-12.8 20.42,0 37.6,4.18 52.49,12.8 33.19,19.17 75.74,7.82 94.91,-25.41 5.6,-9.7 8.53,-20.17 9.16,-30.64l-1044.48 0z"/>
   <g>
    <path class="fil2" d="M211.49 967.92c0,28.58 12.33,40.91 40.91,40.91l188.28 0c28.58,0 40.91,-12.33 40.91,-40.91l0 -77.33 -89.66 0 0 21.86c0,7.84 -4.48,12.33 -12.33,12.33l-55.48 0c-7.84,0 -12.33,-4.48 -12.33,-12.33l0 -63.32 114.32 0 0 -84.05 -114.32 0 0 -72.85 54.35 0c7.85,0 12.33,4.48 12.33,12.33l0 21.86 89.66 0 0 -77.33c0,-28.58 -12.33,-40.91 -40.91,-40.91l-252.17 0 0 84.05 36.43 0 0 275.7z"/>
    <path class="fil2" d="M509.62 1008.82l98.06 0 0 -186.6c0,-25.22 -4.49,-68.36 -4.49,-68.36l1.13 0c0,0 17.93,42.03 33.62,68.36l111.51 186.6 98.63 0 0 -400.66 -98.07 0 0 187.16c0,25.22 4.49,68.36 4.49,68.36l-1.12 0c0,0 -17.93,-42.03 -33.62,-68.36l-110.95 -187.16 -99.18 0 0 400.66z"/>
    <path class="fil2" d="M877.99 885.54c0,86.86 67.8,130.01 136.17,130.01 68.36,0 136.73,-42.03 136.73,-130.01l0 -236.48c0,-28.58 -12.33,-40.91 -40.91,-40.91l-166.99 0 0 84.05 95.26 0c7.84,0 12.33,4.48 12.33,12.33l0 175.95c0,29.14 -14.57,42.59 -35.3,42.59 -19.61,0 -36.99,-11.21 -36.99,-48.19l0 -18.49 -100.3 0 0 29.14z"/>
    <path class="fil2" d="M1169.96 805.97c0,117.68 88.54,209.58 209.58,209.58 121.04,0 209.58,-91.9 209.58,-209.58 0,-114.88 -88.54,-204.53 -209.58,-204.53 -121.04,0 -209.58,89.66 -209.58,204.53zm104.23 0c0,-63.88 47.07,-112.07 105.35,-112.07 58.28,0 105.35,48.19 105.35,112.07 0,66.68 -47.07,117.12 -105.35,117.12 -58.28,0 -105.35,-50.43 -105.35,-117.12z"/>
    <path class="fil2" d="M1680.48 1008.82l100.31 0 0 -175.39 85.18 -128.89c7.29,-11.21 7.85,-12.33 20.17,-12.33l16.25 0 0 -84.05 -54.91 0c-24.66,0 -38.11,3.92 -51.56,26.9l-40.34 68.92c-15.13,25.78 -24.1,44.83 -24.1,44.83l-1.12 0c0,0 -8.96,-19.06 -24.1,-44.83l-40.91 -68.92c-13.45,-22.98 -26.9,-26.9 -51.55,-26.9l-54.92 0 0 84.05 16.25 0c12.33,0 12.89,1.12 20.17,12.33l85.17 128.89 0 175.39z"/>
    <path class="fil2" d="M237.6 1427.62l-100.16 0 -0 -83.36 100.72 0c27.05,0 39.44,18.58 39.44,41.11 0,22.53 -12.96,42.25 -39.99,42.25zm-100.16 -233.75l90.02 0c25.35,0 36.05,15.77 36.05,34.36 0,19.14 -10.7,37.17 -34.35,37.17l-91.72 0 0 -71.53zm180.71 107.58l0 -1.12c20.84,-11.27 46.74,-40.56 46.74,-85.63 0,-69.27 -56.31,-105.33 -136.87,-105.33l-228.02 0 0 84.49 36.61 0 0.05 318.23 191.35 0c79.98,0 153.21,-32.1 153.21,-119.97 0,-35.48 -16.9,-76.6 -63.09,-90.68z"/>
    <path class="fil2" d="M398.87 1109.38l98.57 0 0 254.59c0,42.25 27.61,64.78 69.86,64.78 42.24,0 69.85,-22.53 69.85,-64.78l0 -254.59 98.57 0 0 254.59c0,90.69 -66.47,154.9 -167.85,154.9 -102.51,0 -168.99,-64.21 -168.99,-154.9l0 -254.59z"/>
    <path class="fil2" d="M1276.15 1102.62c103.08,0 154.9,53.51 154.9,53.51l-47.31 73.78c0,0 -41.12,-37.18 -98.02,-37.18 -84.48,0 -118.83,54.08 -118.83,113.78 0,76.6 52.94,122.22 115.46,122.22 47.32,0 81.67,-29.29 81.67,-29.29l0 -30.98 -56.89 0 0 -83.92 103.02 0c22.74,0 41.18,18.44 41.18,41.18l0 186.38 -82.23 0 0 -11.27c0,-8.44 0.56,-16.9 0.56,-16.9l-1.13 0c0,0 -38.85,34.93 -105.89,34.93 -103.07,0 -197.7,-77.17 -197.7,-208.97 0,-117.16 88.43,-207.27 211.22,-207.27z"/>
    <polygon class="fil2" points="1483.64,1109.38 1735.97,1109.38 1735.97,1193.87 1582.21,1193.87 1582.21,1267.09 1704.99,1267.09 1704.99,1351.57 1582.21,1351.57 1582.21,1427.62 1743.86,1427.62 1743.86,1512.11 1483.64,1512.11 "/>
    <path class="fil2" d="M1902.91 1291.04l-35.06 0 0 -98.38 36.75 0c28.27,0 44.1,16.4 44.1,48.62 0,32.22 -15.83,49.76 -45.8,49.76zm167.91 136.26c-11.3,0 -21.48,-1.13 -27.7,-13.01l-25.44 -48.62c-9.04,-17.52 -24.88,-24.31 -24.88,-24.31l0 -1.13c0,0 59.36,-24.31 59.36,-105.16 0,-81.4 -54.84,-127.21 -133.43,-127.21l-152.08 0 0 404.24 101.2 0 0 -136.25 13.57 0c20.91,0 29.39,2.83 36.18,15.27l47.5 91.03c13,24.88 28.83,29.96 57.1,29.96l55.41 0 0 -84.8 -6.79 0z"/>
    <path class="fil2" d="M898.92 1291.04l-35.05 0 0 -98.38 36.74 0c28.28,0 44.1,16.4 44.1,48.62 0,32.22 -15.83,49.76 -45.79,49.76zm167.92 136.26c-11.31,0 -21.49,-1.13 -27.71,-13.01l-25.43 -48.62c-9.05,-17.52 -24.88,-24.31 -24.88,-24.31l0 -1.13c0,0 59.36,-24.31 59.36,-105.16 0,-81.4 -54.85,-127.21 -133.43,-127.21l-152.09 0 0 404.24 101.21 0 0 -136.25 13.57 0c20.91,0 29.4,2.83 36.18,15.27l47.5 91.03c12.99,24.88 28.83,29.96 57.1,29.96l55.4 0 0 -84.8 -6.78 0z"/>
   </g>
   <g>
    <path class="fil2" d="M1622.86 1673.42c6.02,-9.53 11.29,-16.56 15.56,-20.82 4.02,-4.02 8.03,-6.03 12.05,-6.03 7.78,0 13.05,7.03 16.31,20.83 0.75,3.01 1.51,8.28 2.51,15.56 1,7.03 1.76,13.8 2.26,20.57 0.5,7.78 0.75,14.31 0.75,19.83 0,6.02 -0.25,12.04 -0.75,18.32 -0.5,6.52 -1.25,11.79 -2.01,15.31 -0.75,3.76 -2.26,6.77 -4.77,8.53 -2.26,2.01 -5.52,3.01 -10.04,3.01 -5.02,0 -9.29,-1 -12.8,-3.01 -3.76,-1.76 -5.52,-4.27 -5.52,-6.77 0,-1 0.5,-2.76 1.51,-5.02 1.25,-2.76 2.01,-5.77 2.51,-9.03 0.25,-3.76 0.51,-8.28 0.51,-14.05 0,-14.8 -0.25,-24.59 -0.75,-29.11l-0.25 -3.26 -0.25 -1.51c0,-1.25 -0.5,-1.76 -1.26,-1.76 -1.76,0 -5.02,4.77 -9.54,14.3 -3.76,8.28 -6.52,16.06 -8.53,23.08 -2.26,7.53 -3.51,13.8 -3.51,18.57 0,0.51 0.25,1.01 0.25,1.26l0 1.25c0.5,4.27 0.5,6.52 0.5,6.52 0,2.76 -1.51,5.02 -4.52,6.77 -3.01,2.26 -6.77,3.27 -11.29,3.27 -11.29,0 -16.81,-6.27 -16.81,-18.32 0,-3.51 0,-8.03 0.5,-14.05l1.76 -18.82 2.26 -22.83 2.26 -23.84c2.26,-24.59 3.51,-41.15 3.51,-49.68 0,-3.76 -0.25,-7.28 -0.75,-10.54 -0.25,-2.01 -0.25,-3.26 -0.25,-3.26 0,-2.76 1.25,-5.02 4.26,-6.53 3.01,-1.75 6.78,-2.51 11.55,-2.51 11.54,0 17.31,6.27 17.31,18.82 0,6.77 -0.5,14.81 -1.5,23.84l-1.51 14.3c-1,8.53 -1.51,14.05 -1.51,16.81z"/>
    <path class="fil2" d="M1721.1 1682.96c-3.01,8.53 -5.02,16.06 -6.27,22.59 -1.25,7.53 -2.01,14.05 -2.01,20.32 0,9.53 2.76,14.3 8.28,14.3 3.51,0 6.77,-2.26 10.04,-7.03 3.01,-4.77 5.77,-11.04 7.78,-19.07 2.01,-7.53 3.01,-15.81 3.01,-24.59 0,-10.29 -2.26,-15.56 -7.03,-15.56 -3.01,0 -5.27,1.75 -6.77,5.52 -1.25,2.76 -3.01,4.01 -4.77,4.01 -0.5,0 -1.25,0 -2.26,-0.5zm5.52 -33.12c3.51,-2.26 7.78,-3.26 12.3,-3.26 6.77,0 12.8,1.76 17.82,5.52 5.02,3.77 9.04,9.29 11.79,16.31 2.76,6.77 4.27,14.8 4.27,24.09 0,10.54 -1.51,20.58 -4.27,30.36 -2.76,9.53 -6.77,18.32 -12.04,25.6 -4.02,6.02 -9.03,10.54 -15.06,13.8 -6.27,3.51 -12.8,5.27 -19.57,5.27 -8.03,0 -14.8,-2.01 -20.83,-5.52 -6.02,-3.51 -10.29,-8.53 -13.3,-15.3 -3.27,-6.78 -4.77,-14.81 -4.77,-24.09 0,-18.07 4.26,-36.38 12.8,-54.45 3.77,-7.78 7.27,-13.3 10.54,-16.81 3.51,-3.26 7.02,-5.02 11.04,-5.02 3.51,0 6.52,1.25 9.28,3.51z"/>
    <path class="fil2" d="M1838.24 1745.69c-4.52,7.27 -9.29,12.55 -14.05,15.81 -4.52,3.26 -9.54,4.77 -15.56,4.77 -8.78,0 -15.81,-3.76 -20.83,-11.04 -5.02,-7.53 -7.53,-17.56 -7.53,-30.61 0,-5.77 0.25,-12.55 1.25,-20.83 0.75,-7.78 2.01,-15.31 3.51,-22.08 1.25,-7.03 2.76,-12.8 4.52,-17.56 2.01,-4.77 4.26,-8.28 6.77,-10.79 2.76,-2.26 5.77,-3.51 9.79,-3.51 4.01,0 7.78,1.25 11.04,3.51 3.26,2.26 5.02,4.77 5.02,7.78 0,1.25 -0.75,3.76 -2.26,7.28 -1.5,3.76 -3.01,9.28 -4.52,16.31 -1.51,6.77 -2.51,14.05 -3.51,22.08 -1,8.03 -1.25,15.06 -1.25,20.57 0,3.76 1,5.52 3.26,5.52 2.01,0 4.52,-1.76 7.78,-5.27 3.01,-3.26 6.02,-7.78 9.03,-13.3 4.52,-8.28 8.28,-18.07 11.54,-29.11 3.01,-10.79 4.77,-19.57 5.27,-26.1 0.25,-3.76 1.51,-6.52 3.76,-8.28 2.26,-2.01 6.02,-2.76 11.04,-2.76 5.02,0 9.03,1 12.04,3.01 3.26,2.01 4.77,4.77 4.77,7.78 0,1.5 -0.25,3.51 -1,5.77 -3.01,11.79 -5.52,23.84 -7.28,35.63 -1.75,11.79 -2.76,21.83 -2.76,30.36 0,8.28 1.01,14.55 3.01,18.32l2.51 5.27c0.75,1.25 1,2.76 1,4.26 0,2.26 -1.51,4.52 -4.27,6.03 -2.76,1.5 -6.77,2.25 -11.79,2.25 -6.27,0 -10.79,-1.5 -13.8,-4.52 -3.01,-3.01 -5.27,-8.53 -6.52,-16.56z"/>
    <path class="fil2" d="M1882.65 1741.93c0.25,-3.77 1.76,-7.03 4.27,-9.29 2.51,-2.51 5.52,-3.51 9.04,-3.51 2.26,0 4.01,0.75 5.27,2.26l3.51 3.51c5.02,5.02 12.8,7.53 23.59,7.53 7.27,0 10.79,-1 10.79,-3.51 0,-1.01 -1.51,-2.51 -4.27,-3.77l-6.02 -2.76 -12.04 -5.52c-9.29,-4.26 -16.06,-7.78 -20.57,-10.79 -4.77,-3.01 -8.03,-6.02 -9.79,-9.03 -2.01,-3.26 -2.76,-7.02 -2.76,-11.29 0,-5.02 1.76,-10.29 5.27,-15.56 3.51,-5.27 8.53,-10.03 15.06,-14.55 7.78,-5.52 16.31,-9.79 25.85,-13.3 9.54,-3.26 18.07,-5.02 25.09,-5.02 6.77,0 11.79,2.01 15.31,6.03 3.51,4.01 5.27,9.78 5.27,17.31 0,7.78 -1.75,14.55 -5.52,20.33 -3.51,5.77 -7.78,8.78 -12.8,8.78 -3.26,0 -6.53,-1.25 -9.29,-3.26 -2.76,-2.01 -4.26,-4.52 -4.26,-7.53 0,-1.01 0.75,-3.01 2.01,-5.52l1.75 -3.77c0.5,-1 0.75,-1.76 0.75,-2.01 0,-0.75 -0.75,-1.25 -2.26,-1.25 -1.25,0 -3.51,0.5 -6.52,1.51 -3.77,1.25 -6.53,2.51 -8.78,3.51 -4.52,2.26 -8.03,4.52 -10.04,6.27 -2.51,2.26 -3.76,4.02 -3.76,5.77 0,2.01 3.26,4.27 9.54,6.77l10.03 4.01c12.05,4.77 20.83,9.79 26.35,14.81 5.27,5.27 8.03,11.29 8.03,18.06 0,20.33 -14.05,30.61 -41.9,30.61 -14.3,0 -25.6,-2.51 -33.87,-7.03 -8.28,-4.27 -12.3,-10.54 -12.3,-18.82z"/>
    <path class="fil2" d="M2007.94 1707.55c9.29,-5.02 16.31,-10.79 21.58,-17.31 5.02,-6.53 7.53,-11.54 7.53,-14.55 0,-1.75 -0.75,-2.51 -2.26,-2.51 -1.76,0 -4.01,1.25 -7.03,3.76 -2.76,2.26 -5.52,5.27 -8.53,9.29 -4.52,6.02 -8.28,13.05 -11.29,21.33zm-0.25 26.34c3.51,4.01 7.53,6.02 12.3,6.02 4.52,0 8.78,-1.25 13.3,-3.26 4.52,-2.01 8.78,-5.02 12.8,-8.78 2.51,-2.26 4.02,-4.01 4.77,-5.27 0.75,-1.25 1.5,-3.51 2.51,-6.77 1,-4.02 3.51,-6.03 7.28,-6.03 5.02,0 8.78,1.51 12.05,4.52 3.26,3.01 4.77,6.77 4.77,11.54 0,8.78 -5.27,17.56 -15.81,26.35 -12.3,10.03 -25.85,15.06 -40.65,15.06 -13.55,0 -24.09,-3.77 -31.87,-11.29 -7.53,-7.53 -11.54,-17.82 -11.54,-30.86 0,-17.56 6.27,-34.88 18.57,-52.19 3.51,-5.52 7.78,-10.03 12.05,-13.55 4.77,-4.01 9.54,-6.77 14.05,-8.78 4.52,-1.76 9.29,-2.76 14.3,-2.76 8.03,0 14.55,2.51 20.08,7.78 5.52,5.02 8.03,11.54 8.03,19.32 0,8.03 -2.51,16.31 -7.53,24.34 -5.02,8.28 -12.04,15.3 -20.58,21.33 -8.53,6.27 -18.06,10.54 -28.86,13.3z"/>
   </g>
  </g>
 </g>
</svg>
