<svg width="80" height="80" viewBox="0 0 80 80" fill="none" xmlns="http://www.w3.org/2000/svg">
<path d="M77.2941 30.1177C74.7059 30.353 72.1176 30.9412 69.6471 31.8824C64.9412 25.5295 60.7059 17.1765 58.3529 9.17652C58.3529 9.05887 58.2353 8.94122 58.2353 8.82357C58.4706 5.41181 58.9412 4.35299 58.3529 3.8824C57.647 3.29416 57.0588 4.11769 53.4118 3.8824C52.8235 3.8824 52.3529 4.35299 52.4706 4.94122C52.7059 6.00005 52.5882 6.94122 52.7059 8.35299C45.2941 7.76475 37.8823 7.76475 30.4706 8.00005C30.4706 7.8824 30.4706 7.76475 30.3529 7.6471C29.8823 6.82357 29.647 5.8824 29.8823 4.94122C30 4.35299 29.5294 3.8824 29.0588 3.8824H24.4706C22.9412 3.8824 22.2353 4.58828 22.2353 6.11769C22.2353 7.41181 22.9412 8.11769 23.0588 9.05887C22.9412 9.17652 22.8235 9.29416 22.7059 9.41181C18.7059 17.7648 13.8823 25.7648 8.23528 33.0589C6.58822 32.1177 5.17646 30.5883 4.35293 28.8236C4.11764 28.2353 3.41175 28.1177 2.94117 28.5883C1.29411 30.1177 1.5294 32.4706 2.35293 34.1177C3.17646 35.7648 4.94117 36.5883 6.23528 37.5295C6.35293 37.5295 6.47058 37.6471 6.58822 37.6471C7.05881 38 6.82352 37.7648 10.8235 37.5295C10.4706 47.1765 11.0588 55.2942 10.8235 62.9412V63.1765C10.7059 63.1765 10.5882 63.1765 10.5882 63.1765C9.29411 63.1765 8.23528 64.2353 8.23528 65.5295V70.353C8.23528 71.6471 9.29411 72.7059 10.4706 72.7059C11.1765 72.7059 11.7647 72.8236 12.3529 72.8236C19.2941 74.1177 29.7647 74.7059 36.8235 74.9412C49.5294 75.4118 62.1176 77.1765 74.7059 75.8824C75.5294 75.7648 76.4706 75.6471 76.8235 74.8236C77.1765 74 76.5882 72.9412 75.7647 72.5883C75.1765 72.2353 74 71.8824 73.0588 71.5295C73.1765 69.1765 73.2941 66.7059 73.4118 64.353C73.4118 63.7648 73.0588 63.6471 72.5882 63.2942C71.8823 62.8236 71.1765 63.0589 70.5882 62.5883C71.0588 54.2353 71.1765 45.8824 70.9412 37.5295H71.4118C71.8823 37.5295 72.1176 37.1765 72.2353 36.8236C72.5882 36.9412 72.9412 36.9412 73.5294 36.7059C75.4118 36 76.8235 34.5883 77.2941 32.4706C77.5294 32.1177 77.6471 31.7648 77.8823 31.2942C78 31.0589 77.8823 30.7059 77.7647 30.4706C77.8823 30.2353 77.6471 30.1177 77.2941 30.1177ZM32.2353 50.353C32.4706 48.2353 32.3529 47.4118 32.7059 45.6471C35.0588 45.5295 37.0588 45.4118 39.647 45.2942C39.8823 50.4706 38.5882 62.2353 38.8235 62.8236C36.5882 62.8236 34.3529 62.7059 32.1176 62.7059C32 58.1177 31.7647 54.4706 32.2353 50.353ZM41.2941 45.1765C43.5294 45.1765 45.8823 45.1765 48.1176 45.5295C47.5294 51.7648 48.1176 56.5883 47.7647 62.9412C47.647 62.9412 41.0588 62.8236 40.3529 62.8236C40.3529 62.7059 41.5294 49.6471 41.2941 45.1765ZM50 44.9412C50 44.4706 49.7647 44.1177 49.2941 44.0001C43.5294 42.9412 37.647 43.7648 31.8823 44.0001C31.5294 44.0001 31.1765 44.353 31.0588 44.7059C30.4706 47.2942 30.7059 47.7648 30.4706 50.2353C30 54.4706 30.3529 58.2353 30.2353 62.7059C26.3529 62.7059 22.4706 62.7059 18.8235 62.8236C20.1176 55.5295 17.8823 46.8236 18.7059 37.2942C33.2941 36.9412 46.7059 37.7648 61.7647 37.8824C62.3529 47.8824 62.3529 56.1177 61.7647 63.4118C57.647 63.4118 53.5294 63.2942 49.5294 63.1765C49.8823 56.353 49.2941 51.4118 50 44.9412ZM63.8823 55.7648C64.2353 56.0001 64.3529 55.8824 66.1176 55.6471C66.5882 55.6471 66.9412 55.1765 66.9412 54.7059C66.9412 54.2353 66.4706 53.8824 66 53.8824C64.1176 54.1177 64.2353 54 64 54.1177C64 50.8236 64 47.2942 63.8823 43.5295C64 43.5295 65.1765 43.5295 65.0588 43.5295C65.5294 43.5295 66 43.1765 66 42.5883C66 42 65.647 41.6471 65.0588 41.6471H63.8823C63.8823 41.6471 63.8823 41.6471 63.7647 41.6471C63.6471 40.353 63.647 38.9412 63.5294 37.5295C64.9412 37.5295 66.3529 37.5295 67.7647 37.4118C67.1765 46.1177 68.1176 54.353 67.8823 62.9412C66.4706 62.9412 64.9412 62.9412 63.5294 62.9412C63.7647 60.8236 63.8823 58.353 63.8823 55.7648ZM75.8823 32C74.9412 33.2942 73.5294 34.353 72 34.7059C71.6471 34.2353 71.1765 33.7648 70.8235 33.2942C72.4706 32.7059 74.1176 32.353 75.8823 32ZM54.3529 5.6471C55.1765 5.6471 56 5.6471 56.8235 5.52946C56.7059 6.58828 56.4706 7.52946 56.4706 8.58828C55.8823 8.47063 55.1765 8.47063 54.5882 8.47063C54.3529 7.52946 54.3529 6.58828 54.3529 5.6471ZM56.5882 10.4706H56.8235C59.7647 19.6471 64.7059 29.0589 70.2353 35.5295C70.2353 35.6471 70.1176 35.7648 70.1176 35.8824C49.5294 36.4706 29.4118 34.2353 8.23528 36C13.5294 29.2942 18.1176 22.1177 22.1176 14.5883C22.2353 14.7059 22.4706 14.7059 22.5882 14.8236C22.8235 14.8236 56.9412 15.2942 56.8235 15.2942C57.2941 15.2942 57.647 14.9412 57.7647 14.4706C57.7647 14 57.4118 13.5295 56.9412 13.5295L22.9412 12.9412C23.2941 12.2353 24.2353 10.353 24.3529 10.1177C25.4118 10.2353 38 8.58828 56.5882 10.4706ZM28 5.6471C28 6.47063 28.2353 7.29416 28.5882 8.00005C27.2941 8.11769 26 8.23534 24.7059 8.35299C24.4706 7.41181 24 6.82357 24 6.11769C24 6.00005 24 5.76475 24 5.76475C24.1176 5.6471 24.8235 5.76475 28 5.6471ZM3.88234 33.2942C3.5294 32.5883 3.41175 31.7648 3.5294 31.0589C4.47058 32.4706 5.76469 33.6471 7.17646 34.4706C6.94117 34.8236 6.70587 35.1765 6.35293 35.4118C5.41175 34.8236 4.47058 34.2353 3.88234 33.2942ZM12.7059 58.353L15.7647 58.2353C16.2353 58.2353 16.5882 57.7648 16.5882 57.2942C16.5882 56.8236 16.1176 56.353 15.647 56.4706L12.7059 56.5883C12.5882 52.353 12.5882 48.7059 12.5882 44.4706L13.4118 44.2353C13.8823 44.1177 14.1176 43.5295 14 43.0589C13.8823 42.5883 13.2941 42.353 12.8235 42.4706L12.5882 42.5883C12.5882 40.8236 12.5882 39.0589 12.7059 37.2942C14.1176 37.1765 15.5294 37.1765 16.9412 37.0589C16.5882 41.6471 16.8235 46 17.1765 50.1177C17.8823 59.5295 17.4118 59.5295 17.0588 62.7059C15.5294 62.8236 14.1176 62.8236 12.5882 62.9412C12.7059 62.5883 12.7059 58.8236 12.7059 58.353ZM10.1176 65.5295C10.1176 65.1765 10.3529 64.9412 10.8235 64.9412C27.4118 63.5295 47.8823 65.1765 69.6471 64.9412C70 64.9412 70.2353 65.1765 70.2353 65.5295C70.1176 70.7059 70.3529 70.5883 70.1176 70.9412C69.8823 71.1765 69.8823 71.0589 65.2941 71.2942C50 71.7648 30.9412 72.4706 10.8235 70.9412C10.4706 70.9412 10.2353 70.7059 10.2353 70.353V65.5295H10.1176Z" fill="#222222"/>
</svg>
