<svg width="80" height="80" viewBox="0 0 80 80" fill="none" xmlns="http://www.w3.org/2000/svg">
<g clip-path="url(#clip0_13305_1342)">
<path d="M9.39809 4.71037C9.69762 5.22017 9.52715 5.87619 9.01735 6.17573C8.77155 6.32015 8.47807 6.36054 8.20237 6.28783C6.33406 5.53041 8.09936 2.96123 9.39809 4.71037ZM56.1381 45.3951C56.4694 43.2803 56.1725 41.0465 56.2795 38.8934C56.6411 37.6815 54.7728 37.223 54.6839 38.5318C54.6031 40.4567 54.7101 42.3836 54.6354 44.3104C54.389 45.3426 55.2959 46.4211 56.1381 45.3951ZM58.7517 46.0838C60.4847 46.4878 59.6889 43.9812 59.8182 43.0057C59.7313 41.3312 59.8848 39.6084 59.695 37.9562C59.3839 37.1483 58.1377 37.4027 58.1478 38.2672C58.372 39.669 57.6934 45.698 58.7517 46.0838ZM62.9125 45.8818C63.2397 45.5627 63.1307 45.0921 63.1589 44.67C63.1892 42.4482 63.2922 40.1517 63.1589 37.94C62.8499 37.1321 61.6017 37.3886 61.6118 38.2511C61.5613 40.5536 61.638 42.8542 61.5411 45.1547C61.4641 45.6011 61.7637 46.0252 62.2098 46.1022C62.4643 46.146 62.7247 46.0675 62.9125 45.8899V45.8818ZM49.081 47.3482C49.2648 42.5189 49.1658 37.6855 49.0224 32.8481C48.8204 31.6362 49.3153 26.6837 48.4023 26.3605C44.8626 26.1127 41.3094 26.1295 37.7721 26.411C36.6108 27.4815 36.9137 29.9538 36.4896 31.4605C35.6695 37.7219 34.0658 43.8297 33.2902 50.0911C33.1064 51.8261 35.8331 50.899 36.8814 51.1919C40.5918 51.101 44.389 51.2161 48.061 50.9697C49.9495 51.3555 48.9194 48.3985 49.081 47.3482ZM70.0464 78.7762H22.9852C9.72731 78.5419 9.70308 58.8146 22.9852 58.5783H36.3563C36.1886 57.8612 36.2028 56.8978 36.2149 55.595C34.0436 55.5688 31.8703 55.6637 29.7011 55.7405C27.2369 57.1826 28.4791 48.3601 30.2969 39.5599C21.8441 29.6245 16.0048 20.6708 7.82063 10.9374C7.93778 17.015 7.6954 23.0986 7.74589 29.1802C9.01231 29.3821 11.1573 28.3723 11.5835 30.0972C11.8461 31.3595 11.7148 32.6643 11.7532 33.9348C11.9551 35.3022 11.3734 35.9768 9.96969 35.896C9.73741 37.2654 10.6706 40.5415 9.56573 41.2606C8.28114 42.0624 6.26135 42.9228 6.38052 44.672C6.50978 46.0515 8.08522 46.5928 9.50716 46.1121C10.4948 45.6738 10.7675 44.7164 11.3068 43.9489C13.8901 42.2765 15.8655 50.3456 10.9836 51.9089C1.8178 55.3587 -4.58696 43.7227 4.14864 38.5217C4.25771 37.6189 4.17288 36.7039 4.14864 35.7869C2.14097 35.1668 3.20136 31.6625 3.02766 30.0204C3.06401 28.55 5.19086 29.3155 6.13814 29.1782C6.07755 22.2947 6.41485 15.3729 6.1139 8.5096C4.84749 6.5302 4.05775 4.59322 4.46777 3.06828C6.42293 -5.89557 38.2609 20.4486 43.3953 22.9895C46.2108 22.9895 49.0264 23.0339 51.842 22.9895C53.3427 22.8279 53.4316 23.9994 53.9042 25.0093C55.1646 27.9117 56.5865 30.7475 57.8206 33.6601L57.9984 33.6762C57.8812 24.371 57.76 19.7296 68.8568 21.3555C69.5799 21.408 70.3696 21.7938 70.1555 22.6421C66.4492 28.451 68.8689 26.8554 63.4902 27.53C62.5591 28.3622 63.2417 32.4017 62.9873 33.8499C63.8194 33.8722 64.9101 33.4682 65.1646 34.6053C67.4954 39.978 68.7315 45.799 69.701 51.5554C69.6647 52.5977 70.8039 55.3042 69.1618 55.3931C66.0331 55.797 62.8479 55.8253 59.6889 55.8899C59.6485 56.7968 59.6182 57.6916 59.5556 58.5924H70.0585C83.3246 58.8227 83.3084 78.55 70.0464 78.7762ZM59.6122 33.7853C60.1953 33.8136 60.7802 33.8303 61.3674 33.8358C61.7592 29.2024 59.7515 25.0982 66.4169 25.7061C66.8208 25.082 67.655 23.6055 68.1438 22.8784C57.8954 21.8564 60.103 25.181 59.6203 33.444C59.6116 33.5575 59.6087 33.6714 59.6122 33.7853ZM13.0479 5.03354C19.8909 12.2563 26.6835 19.5054 33.2458 26.9927C34.7061 21.4868 33.7326 23.4561 40.517 22.9915C39.5086 22.2981 38.5088 21.5918 37.5177 20.8728C29.5698 15.2678 21.531 9.78005 13.0479 5.03354ZM5.7766 35.8576C5.80285 37.7663 6.24721 39.6084 4.09411 40.4688L4.12441 40.4425C4.04765 40.5072 3.88203 40.6243 4.06583 40.491C0.632182 43.0057 0.777607 48.657 5.02321 50.3113C8.45686 51.8342 13.878 50.3314 12.0642 45.8435C7.41869 51.7736 0.381727 43.6217 8.47908 40.0446C8.35991 38.6651 8.37203 37.2755 8.35991 35.8919C7.49948 35.8818 6.63703 35.8778 5.7766 35.8576ZM30.7291 37.4734C31.4098 34.3327 32.143 31.2989 32.7489 28.855C26.2351 21.2444 19.2001 14.0055 12.3692 6.66957C10.7574 5.16684 7.99433 0.963653 6.26135 2.9996C4.82931 6.69785 11.9673 12.8158 14.3587 16.5322C20.3433 23.8176 24.9505 31.1656 30.7291 37.4815V37.4734ZM68.3619 53.8863C67.6631 47.8734 66.0634 40.9556 63.7831 35.4395C61.4785 35.4698 59.0971 35.4799 56.843 35.1668C55.0919 31.8059 53.5831 28.1137 51.9955 24.6074C46.8026 24.6619 40.7715 24.5144 35.4716 24.7205C33.1448 34.5427 30.406 43.8883 29.8788 54.1347C42.3248 53.5995 56.1502 54.88 68.3619 53.8944V53.8863ZM58.061 55.8839C51.3128 55.8455 44.5748 55.7061 37.8287 55.6092C37.8529 56.5544 37.857 57.5017 37.9297 58.4369C44.3547 58.8126 51.8521 58.4369 57.9459 58.5702C57.9923 57.9642 58.0145 57.1786 58.0509 56.4938C58.065 56.2935 58.0656 56.0923 58.0529 55.8919L58.061 55.8839ZM70.0464 60.1941H22.9852C18.3001 60.1941 14.5021 63.9921 14.5021 68.6772C14.5021 73.3624 18.3001 77.1604 22.9852 77.1604H70.0464C81.1815 76.9725 81.2058 60.3961 70.0464 60.1941ZM75.4999 68.6772C75.5043 72.2234 72.6332 75.1018 69.087 75.1062C69.0836 75.1062 69.0804 75.1062 69.0769 75.1062H23.9547C15.5019 74.9628 15.5261 62.4038 23.9547 62.2624H69.0769C72.6215 62.2612 75.4964 65.1327 75.4999 68.6772ZM28.883 68.6772C28.8628 64.1872 22.0359 64.1872 22.0157 68.6772C22.0299 73.1753 28.8588 73.1753 28.883 68.6772ZM49.9535 68.6772C49.9333 64.1872 43.1064 64.1872 43.0862 68.6772C43.1024 73.1753 49.9293 73.1753 49.9495 68.6772H49.9535ZM71.026 68.6772C71.0058 64.1872 64.1789 64.1872 64.1587 68.6772C64.1729 73.1753 71.0018 73.1753 71.022 68.6772H71.026Z" fill="#222222"/>
</g>
<defs>
<clipPath id="clip0_13305_1342">
<rect width="80" height="80" fill="white"/>
</clipPath>
</defs>
</svg>
